# xmcd CD database file generated by Grip 3.0.4
# 
# Track frame offsets:
#       182
#       17252
#       39045
#       58517
#       79875
#       99565
#       118420
#       139992
#       158940
#       173935
#       193387
#       211560
#       229370
#       247082
#       264670
# 
# Disc length: 3737 seconds
# 
# Revision: 2
# Processed by: cddbd v1.4PL0 Copyright (c) Steve Scherf et al.
# Submitted via: Grip 3.0.4
# 
DISCID=d20e970f
DTITLE=譚詠麟 - 譚詠麟最佳金曲
DYEAR=1989
DGENRE=Other
TTITLE0=半夢半醒
TTITLE1=偏愛
TTITLE2=痴心的廢墟
TTITLE3=舊信紙
TTITLE4=知心當玩偶
TTITLE5=Don't Say Goodbye
TTITLE6=朋友
TTITLE7=珍重
TTITLE8=Because I love you
TTITLE9=雨夜的浪漫
TTITLE10=愛在深秋
TTITLE11=愛的根源
TTITLE12=誰可改變
TTITLE13=愛情陷阱
TTITLE14=曾經
EXTD=
EXTT0=
EXTT1=
EXTT2=
EXTT3=
EXTT4=
EXTT5=
EXTT6=
EXTT7=
EXTT8=
EXTT9=
EXTT10=
EXTT11=
EXTT12=
EXTT13=
EXTT14=
PLAYORDER=
